PathFileType	4	(X/Y/Z)	C:/Users/opensim2020/Desktop/walking_exp_matlab/subject06_walking16_straight_02.trc	
DataRate	CameraRate	NumFrames	NumMarkers	Units	OrigDataRate	OrigDataStartFrame	OrigNumFrames	
100.00	100.00	6	51	mm	100.00	2166	283	
Frame#	Time	LFHD			RFHD			LBHD			RBHD			C7			T10			CLAV			STRN			RBAK			LSHO			LUPA			LELB			LFRM			LWRA			LWRB			LFIN			RSHO			RUPA			RELB			RFRM			RWRA			RWRB			RFIN			LASI			RASI			LPSI			RPSI			LTHI			LKNE			LTIB			LANK			LHEE			LTOE			RTHI			RKNE			RTIB			RANK			RHEE			RTOE			*39			*40			*41			*42			*43			*44			*45			*46			*47			*48			*49			*50			
		X1	Y1	Z1	X2	Y2	Z2	X3	Y3	Z3	X4	Y4	Z4	X5	Y5	Z5	X6	Y6	Z6	X7	Y7	Z7	X8	Y8	Z8	X9	Y9	Z9	X10	Y10	Z10	X11	Y11	Z11	X12	Y12	Z12	X13	Y13	Z13	X14	Y14	Z14	X15	Y15	Z15	X16	Y16	Z16	X17	Y17	Z17	X18	Y18	Z18	X19	Y19	Z19	X20	Y20	Z20	X21	Y21	Z21	X22	Y22	Z22	X23	Y23	Z23	X24	Y24	Z24	X25	Y25	Z25	X26	Y26	Z26	X27	Y27	Z27	X28	Y28	Z28	X29	Y29	Z29	X30	Y30	Z30	X31	Y31	Z31	X32	Y32	Z32	X33	Y33	Z33	X34	Y34	Z34	X35	Y35	Z35	X36	Y36	Z36	X37	Y37	Z37	X38	Y38	Z38	X39	Y39	Z39	X40	Y40	Z40	X41	Y41	Z41	X42	Y42	Z42	X43	Y43	Z43	X44	Y44	Z44	X45	Y45	Z45	X46	Y46	Z46	X47	Y47	Z47	X48	Y48	Z48	X49	Y49	Z49	X50	Y50	Z50	X51	Y51	Z51	

213	2.120	1529.06177	-220.00874	1667.68420	1397.83496	-208.54901	1654.67468	1541.16821	-86.16335	1614.67017	1412.42822	-76.62424	1607.15161	1480.83911	-77.89092	1455.64478	1469.36316	-50.78779	1124.91223	1476.81409	-187.43517	1378.69629	1482.00098	-230.21263	1203.98792	1398.60461	-7.51197	1284.02625	1639.56067	-136.61575	1408.58838	1718.96423	-157.93805	1209.29834	1735.58936	-172.99313	1098.63586	1756.19507	-228.04344	958.60895	1701.92249	-293.20541	851.69287	1756.84534	-249.52623	841.33014	1748.90356	-303.67392	769.13483	1316.73218	-143.25171	1410.84351	1228.71777	-106.68316	1211.42346	1219.38330	-116.98576	1089.25000	1204.41870	-132.74007	969.49927	1240.25122	-190.27855	831.27893	1197.88501	-137.75603	831.21118	1199.92615	-175.24205	755.21118	1580.17041	-234.19589	968.85516	1358.01172	-231.57130	973.42389	1551.82373	-76.28099	994.89063	1383.36755	-79.60622	992.60876	1629.87415	-171.27000	653.24860	1603.20190	-169.57353	489.80911	1588.84082	-110.82697	238.37669	1537.80139	-86.56186	70.03410	1493.89233	-44.04174	58.59237	1530.21814	-231.17325	40.23227	1299.27356	-257.75339	649.76666	1322.20544	-303.63116	532.64630	1318.41199	-190.03664	299.18649	1354.38855	-109.34096	130.03519	1402.12256	-67.03510	113.95779	1341.01855	-240.44475	53.86503	1477.58215	-115.11587	1705.94360																																	 
214	2.130	1529.27954	-226.84802	1667.70166	1398.07959	-215.24965	1654.56506	1541.49487	-93.24916	1614.46033	1412.80615	-83.45988	1606.87134	1481.35315	-84.81750	1455.52136	1470.05981	-57.63325	1124.90686	1477.29150	-194.38066	1378.57629	1482.71289	-237.05122	1203.83716	1399.53857	-14.24497	1283.77332	1640.07312	-143.92664	1408.56421	1719.48389	-167.02449	1209.63013	1736.36792	-183.36151	1099.12244	1757.15259	-241.14929	960.24127	1703.19910	-309.31955	855.07391	1757.50159	-265.24405	843.40662	1749.83093	-321.08942	772.47583	1317.19751	-149.88750	1410.50769	1229.52441	-112.85049	1211.02271	1220.09460	-123.12148	1088.88513	1204.95483	-138.36542	969.08765	1240.20569	-195.48251	830.59698	1198.20020	-142.72151	830.82892	1199.84717	-179.85927	754.70306	1580.75403	-240.64891	968.35052	1358.57410	-238.62364	973.66089	1551.93481	-82.78030	994.63245	1383.44495	-86.56351	992.73785	1629.73181	-175.98549	652.85944	1603.18933	-172.95845	489.35117	1588.76160	-112.50285	238.33246	1537.74304	-86.80205	70.14816	1493.94202	-44.68120	58.48553	1529.97473	-231.40530	40.40973	1299.01025	-265.80978	650.48486	1322.44263	-312.38568	533.79236	1319.15479	-206.06516	296.05630	1355.13843	-133.84032	123.23438	1403.10339	-92.78622	105.05511	1339.55554	-268.04724	53.02776	1477.86206	-121.84368	1705.75464																																	 
215	2.140	1529.41785	-233.53079	1667.66223	1398.20593	-221.86816	1654.38318	1542.06873	-99.93353	1614.32532	1413.17358	-90.24139	1606.54016	1481.84753	-91.83039	1455.28552	1470.64905	-64.34068	1124.79089	1477.70911	-201.29854	1378.36597	1483.34705	-243.84584	1203.60327	1400.48877	-21.02760	1283.57935	1640.53857	-151.24759	1408.43762	1719.89392	-175.93585	1209.83435	1737.08142	-193.55760	1099.47595	1758.03735	-253.95467	961.67590	1704.56018	-325.45093	858.55939	1757.59045	-280.46960	845.09766	1750.61438	-338.23987	775.79303	1317.72131	-156.48933	1410.16589	1230.20605	-119.08369	1210.57935	1220.74097	-129.24748	1088.48059	1205.43408	-144.01427	968.58557	1239.98230	-200.92471	829.91241	1198.40393	-147.64696	830.36938	1199.62244	-184.27376	753.99805	1581.23193	-247.00542	967.80170	1359.03406	-245.64546	973.77972	1552.08862	-89.25195	994.36328	1383.57544	-93.53568	992.81482	1629.52051	-180.73851	652.40161	1603.01538	-176.46474	488.86639	1588.53711	-114.21646	238.25055	1537.51099	-87.22581	70.24789	1493.84558	-44.83096	58.80136	1530.00330	-231.43343	40.30752	1298.85559	-273.47040	650.98737	1322.64465	-320.68030	534.58270	1319.34509	-222.71069	292.90262	1355.67285	-158.70647	116.80841	1403.90918	-118.66956	96.77341	1338.48486	-295.69336	52.45286	1478.12256	-128.51520	1705.52673																																	 
216	2.150	1529.57507	-240.24411	1667.59363	1398.26746	-228.46964	1654.17737	1542.33813	-106.84673	1614.07300	1413.48059	-96.94437	1606.10278	1482.52991	-98.86870	1455.12415	1471.09741	-71.07885	1124.68787	1478.14197	-208.30664	1378.13318	1483.96521	-250.61903	1203.32153	1401.34412	-27.72078	1283.38489	1640.98474	-158.60170	1408.21082	1720.23010	-184.71114	1209.83252	1737.57202	-203.43460	1099.60181	1758.77930	-266.40927	963.04785	1705.91602	-341.42828	862.18646	1758.24121	-295.88037	847.21808	1751.38647	-355.32144	779.25079	1318.13501	-163.18001	1409.75317	1230.98376	-125.46584	1210.07031	1221.40076	-135.45860	1088.05127	1205.94165	-149.66937	968.14160	1240.08044	-205.67500	828.93945	1198.52197	-152.24181	829.91895	1199.49072	-188.85107	753.36737	1581.74438	-253.42839	967.27838	1359.45276	-252.60141	973.77435	1552.13062	-95.77270	994.07013	1383.63037	-100.48802	992.80042	1629.23669	-185.59048	651.93024	1602.85852	-180.00450	488.38943	1588.26880	-115.94991	238.21780	1537.41748	-87.29307	70.43795	1493.74719	-45.01217	59.17894	1530.09900	-231.36098	40.12068	1298.73840	-280.70081	651.28546	1322.81409	-328.48163	535.17206	1319.54492	-239.17638	289.75723	1355.67944	-183.51328	110.92943	1404.26648	-144.65735	89.34840	1337.89441	-323.15408	52.08523	1478.28430	-135.19617	1705.23401																																	 
217	2.160	1529.64905	-247.08931	1667.57617	1398.29626	-235.16277	1653.91235	1542.54761	-113.76717	1613.77136	1413.81543	-103.69247	1605.67676	1483.07642	-105.97968	1454.94055	1471.46191	-77.81101	1124.51489	1478.48926	-215.22919	1377.83032	1484.41711	-257.39850	1202.98462	1402.10608	-34.58959	1283.10803	1641.46497	-165.98766	1407.96106	1720.37793	-193.34306	1209.72180	1737.94714	-213.03090	1099.65601	1759.51733	-278.63855	964.34436	1707.32947	-357.23636	865.89996	1758.11145	-310.92719	849.04132	1752.09473	-372.03418	782.77185	1318.52637	-169.86031	1409.36914	1231.55151	-131.89200	1209.68347	1222.05042	-141.71948	1087.61780	1206.34912	-155.38136	967.67920	1239.82483	-211.11690	828.20288	1198.65869	-157.19498	829.45776	1199.29907	-193.44792	752.76923	1582.15759	-259.86859	966.76233	1359.85669	-259.59265	973.74042	1552.19202	-102.28854	993.67242	1383.70789	-107.38905	992.77405	1628.98425	-190.51607	651.43427	1602.63306	-183.57886	487.88358	1588.04675	-117.66508	238.28865	1537.20129	-87.76849	70.65067	1493.59070	-44.98650	59.71382	1529.81128	-231.59111	40.18071	1298.67957	-287.55411	651.33356	1323.00696	-335.90714	535.54181	1319.75488	-255.60432	286.73657	1355.74036	-208.52306	105.44700	1404.50098	-170.62814	82.33273	1338.08032	-350.60541	51.68490	1478.35144	-141.91350	1704.90723																																	 
218	2.170	1529.58142	-253.86441	1667.46143	1398.25964	-241.86488	1653.60693	1542.79578	-120.74443	1613.47388	1414.06445	-110.46690	1605.13049	1483.63135	-112.98776	1454.75000	1471.77466	-84.54690	1124.30981	1478.83655	-222.22354	1377.56506	1484.82837	-264.20630	1202.62158	1402.79333	-41.43670	1282.84363	1641.81738	-173.28789	1407.57227	1720.38025	-201.83163	1209.52783	1738.16907	-222.40155	1099.59827	1759.96008	-290.47311	965.58246	1708.83374	-373.24463	869.95587	1758.15686	-325.67740	851.25494	1752.84094	-388.63290	786.51349	1318.90649	-176.61424	1408.99744	1232.20056	-138.33669	1209.25793	1222.62793	-147.90459	1087.22888	1206.73340	-161.08293	967.20325	1239.81909	-215.95468	827.39606	1198.78174	-162.17332	829.03467	1199.09033	-197.91507	752.14063	1582.19189	-264.92990	965.42535	1360.18530	-266.69678	973.66321	1552.26379	-108.79443	993.21759	1383.79956	-114.34660	992.70392	1628.81958	-195.20796	650.95508	1602.40063	-187.23793	487.40869	1587.75793	-119.39391	238.36002	1537.16455	-87.93852	70.90750	1493.44385	-45.42559	60.02435	1529.78064	-231.92279	40.32811	1298.55957	-294.10175	651.21002	1323.11316	-342.92169	535.54614	1319.48840	-272.52005	283.67563	1355.67688	-233.73210	100.45844	1404.45422	-196.63081	76.24723	1338.55212	-377.90805	51.51698	1478.38025	-148.57961	1704.56531																																	 
